<svg width="100" height="100" xmlns="http://www.w3.org/2000/svg" viewBox="0 0 100 100" >
 <title>logo</title>

 <g>
  <title>Layer 1</title>
  <polyline transform="rotate(-2 50.75 49.1499)" stroke-width="3" stroke="#bf0000" stroke-linecap="round" id="svg_9" points="11.009539932012558,53.929497092962265 11.009539932012558,54.187858909368515 11.009539932012558,54.4462169110775 11.009539932012558,54.4462169110775 11.009539932012558,54.704574912786484 11.009539932012558,54.704574912786484 11.009539932012558,55.47964891791344 11.009539932012558,55.73801073431969 11.009539932012558,56.25472292304039 10.754792541265488,56.25472292304039 10.754792541265488,57.02979692816734 10.754792541265488,57.28815874457359 10.754792541265488,57.54651674628258 10.754792541265488,57.80487474799156 10.754792541265488,58.579948753118515 10.754792541265488,58.579948753118515 10.754792541265488,59.61338075995445 10.50004705786705,59.61338075995445 10.50004705786705,60.38845857977867 10.50004705786705,60.646816581487656 10.50004705786705,61.163532584905624 10.50004705786705,61.68024858832359 10.50004705786705,61.93861040472984 10.50004705786705,62.455322593450546 10.50004705786705,62.455322593450546 10.50004705786705,63.2303965985775 10.50004705786705,63.2303965985775 10.50004705786705,63.747116416692734 10.50004705786705,64.2638324201107 10.50004705786705,64.52219423651695 10.50004705786705,65.03891023993492 10.50004705786705,65.81398805975914 10.50004705786705,66.07234224677086 10.50004705786705,66.33070406317711 10.50004705786705,66.58905825018883 10.50004705786705,67.10576662421227 10.50004705786705,67.10576662421227 10.50004705786705,67.62249025702477 10.50004705786705,67.88084444403648 10.50004705786705,68.13920626044273 10.50004705786705,68.6559222638607 10.50004705786705,69.17263826727867 10.50004705786705,69.43100008368492 10.50004705786705,69.68935427069664 10.50004705786705,69.68935427069664 10.50004705786705,69.68935427069664 10.50004705786705,70.46443209052086 10.50004705786705,70.72279390692711 10.50004705786705,70.72279390692711 10.50004705786705,70.98114809393883 10.50004705786705,71.23950991034508 10.50004705786705,71.4978640973568 10.50004705786705,71.4978640973568 10.50004705786705,71.4978640973568 10.50004705786705,72.0145877301693 10.50004705786705,72.0145877301693 10.50004705786705,72.53130373358727 10.50004705786705,72.78965029120445 10.50004705786705,72.78965029120445 10.50004705786705,73.0480121076107 10.50004705786705,73.56472811102867 10.50004705786705,73.56472811102867 10.50004705786705,74.08144411444664 10.50004705786705,74.33980593085289 10.50004705786705,74.59816011786461 10.50004705786705,74.85652193427086 10.50004705786705,75.11488375067711 10.50004705786705,75.63159975409508 10.50004705786705,75.8899539411068 10.50004705786705,76.14831575751305 10.50004705786705,76.66503176093102 10.50004705786705,76.92339357733727 10.50004705786705,76.92339357733727 10.50004705786705,77.44010958075523 10.50004705786705,77.69846376776695 10.50004705786705,77.9568255841732 10.50004705786705,77.9568255841732 10.50004705786705,78.47354158759117 10.50004705786705,78.47354158759117 10.50004705786705,78.73190340399742 10.50004705786705,78.73190340399742 10.754792541265488,78.99024996161461 10.754792541265488,78.99024996161461 10.754792541265488,79.76532778143883 10.754792541265488,79.76532778143883 10.754792541265488,80.02368959784508 10.754792541265488,80.2820437848568 10.754792541265488,80.54040560126305 11.009539932012558,80.54040560126305 11.009539932012558,80.79875978827477 11.009539932012558,80.79875978827477 11.009539932012558,81.05712160468102 11.009539932012558,81.05712160468102 11.009539932012558,81.31548342108727 11.009539932012558,81.57383760809898 11.264286369085312,82.09055361151695 11.264286369085312,82.3489154279232 11.264286369085312,82.3489154279232 11.264286369085312,82.60727724432945 11.264286369085312,82.60727724432945 11.264286369085312,82.60727724432945 11.264286369085312,82.60727724432945 11.519032806158066,82.86563143134117 11.519032806158066,83.12399324774742 11.519032806158066,83.38234743475914 11.77377924323082,83.38234743475914 11.77377924323082,83.64070925116539 11.77377924323082,83.64070925116539 11.77377924323082,83.89906343817711 11.77377924323082,83.89906343817711 12.028524726629257,84.15742525458336 12.028524726629257,84.41578707098961 12.028524726629257,84.41578707098961 12.028524726629257,84.41578707098961 12.283272117376328,84.67414125800133 12.283272117376328,84.93249544501305 12.538018554449081,85.19084963202477 12.792764991521835,85.70757326483727 13.557004302740097,86.48264345526695 13.811750739812851,86.48264345526695 14.575990051031113,87.25772127509117 14.575990051031113,87.25772127509117 15.34023031592369,87.77443727850914 15.849722236394882,88.03279909491539 16.86870989203453,88.29115328192711 18.142441123723984,88.80787691473961 18.397188514471054,88.80787691473961 19.925667136907578,89.06623110175133 20.435160011053085,89.32459291815758 22.218384116888046,89.32459291815758 22.473131507635117,89.32459291815758 24.765850394964218,89.32459291815758 25.530088752508163,89.5829471051693 26.29432901740074,89.5829471051693 27.568062156438828,89.84130892157555 30.370273917913437,89.84130892157555 30.879766792058945,89.84130892157555 33.93672212958336,89.84130892157555 34.95571169257164,89.84130892157555 37.503174155950546,89.84130892157555 37.503174155950546,89.84130892157555 38.01266893744469,89.84130892157555 38.267414420843124,89.84130892157555 38.267414420843124,89.84130892157555 38.267414420843124,89.84130892157555 39.03165087103844,89.84130892157555 39.03165087103844,89.84130892157555 39.54114565253258,90.0996707379818 39.795891135931015,90.0996707379818 40.05064043402672,90.0996707379818 40.305385917425156,90.0996707379818 40.814880698919296,90.0996707379818 40.814880698919296,90.0996707379818 41.069626182317734,90.0996707379818 41.579120963811874,90.35802492499352 41.83386644721031,90.35802492499352 42.34335741400719,90.35802492499352 42.34335741400719,90.35802492499352 42.85284838080406,90.35802492499352 43.107597678899765,90.35802492499352 43.3623431622982,90.35802492499352 43.61708864569664,90.35802492499352 44.12658342719078,90.35802492499352 44.63607820868492,90.35802492499352 44.63607820868492,90.35802492499352 44.89082369208336,90.35802492499352 45.65506014227867,90.35802492499352 45.65506014227867,90.35802492499352 46.16455492377281,90.35802492499352 46.16455492377281,90.35802492499352 46.67404970526695,90.35802492499352 46.67404970526695,90.35802492499352 47.947780936956406,90.35802492499352 48.71201738715172,90.61638674139977 49.22151216864586,90.61638674139977 49.47626146674156,90.87473329901695 49.98575243353844,90.87473329901695 50.24050173163414,90.87473329901695 51.00473818182945,90.87473329901695 51.25948366522789,90.87473329901695 52.278469413518906,91.1330951154232 52.53321871161461,91.1330951154232 53.29745897650719,91.1330951154232 54.0616954267025,91.1330951154232 54.31644091010094,91.1330951154232 56.60916170477867,91.1330951154232 57.118652671575546,91.1330951154232 61.194599479436874,91.1330951154232 61.194599479436874,91.1330951154232 61.70409044623375,91.1330951154232 61.70409044623375,91.39144930243492 61.95883974432945,91.39144930243492 61.95883974432945,91.39144930243492 62.21358522772789,91.39144930243492 62.46833071112633,91.39144930243492 62.723076194524765,91.1330951154232 62.9778216779232,91.1330951154232 63.23256716132164,91.1330951154232 63.48731645941734,91.1330951154232 63.74206194281578,91.1330951154232 63.99680361151695,91.1330951154232 64.25155672430992,91.1330951154232 64.25155672430992,91.1330951154232 64.7610476911068,91.1330951154232 64.7610476911068,91.1330951154232 65.52529177069664,91.1330951154232 65.78003725409508,91.1330951154232 66.28952822089195,91.1330951154232 66.54427370429039,91.1330951154232 66.54427370429039,91.1330951154232 66.79902681708336,91.1330951154232 67.3085101544857,91.1330951154232 67.3085101544857,91.1330951154232 68.07275423407555,91.1330951154232 68.32749971747398,91.1330951154232 68.32749971747398,91.1330951154232 68.58224520087242,91.1330951154232 68.83699068427086,91.1330951154232 69.0917361676693,91.1330951154232 69.0917361676693,91.1330951154232 69.34648165106773,91.1330951154232 69.6012347638607,91.1330951154232 69.6012347638607,91.39144930243492 69.85598024725914,91.39144930243492 69.85598024725914,91.39144930243492 70.11072573065758,91.39144930243492 70.11072573065758,91.64981111884117 70.36547121405602,91.64981111884117 70.36547121405602,91.64981111884117 70.87496218085289,91.64981111884117 71.12971529364586,91.64981111884117 71.3844607770443,91.64981111884117 71.89395174384117,91.64981111884117 72.14869722723961,91.64981111884117 72.91294130682945,91.64981111884117 73.16767916083336,91.64981111884117 73.67717012763023,91.64981111884117 73.9319232404232,91.64981111884117 74.44141420722008,91.64981111884117 75.46040377020836,91.64981111884117 75.96989473700523,91.64981111884117 79.28159365057945,91.39144930243492 80.0458377301693,91.1330951154232 82.08380922675133,91.1330951154232 82.08380922675133,91.1330951154232 82.08380922675133,91.39144930243492 82.33855471014977,91.39144930243492 82.33855471014977,91.39144930243492 82.33855471014977,91.39144930243492 82.59330782294273,91.39144930243492 82.84805330634117,91.39144930243492 82.84805330634117,91.39144930243492 83.10279878973961,91.1330951154232 83.10279878973961,91.1330951154232 83.35754427313805,91.1330951154232 83.35754427313805,91.1330951154232 83.61228975653648,90.87473329901695 83.61228975653648,90.87473329901695 83.86703523993492,90.87473329901695 83.86703523993492,90.87473329901695 84.12178835272789,90.61638674139977 84.12178835272789,90.61638674139977 84.12178835272789,90.61638674139977 84.37653383612633,90.61638674139977 84.37653383612633,90.35802492499352 84.63127931952477,90.35802492499352 84.63127931952477,90.35802492499352 84.63127931952477,90.35802492499352 84.8860248029232,90.35802492499352 84.8860248029232,90.35802492499352 85.14076265692711,90.35802492499352 85.14076265692711,90.0996707379818 85.39550814032555,90.0996707379818 85.39550814032555,90.0996707379818 85.39550814032555,90.0996707379818 85.65026125311852,90.0996707379818 85.65026125311852,90.0996707379818 85.65026125311852,89.84130892157555 85.90500673651695,89.84130892157555 85.90500673651695,89.84130892157555 85.90500673651695,89.84130892157555 86.15975221991539,89.5829471051693 86.15975221991539,89.5829471051693 86.41449770331383,89.5829471051693 86.41449770331383,89.32459291815758 86.66924318671227,89.06623110175133 86.66924318671227,89.06623110175133 86.9239886701107,88.80787691473961 86.9239886701107,88.54951509833336 87.17874178290367,88.54951509833336 87.17874178290367,88.29115328192711 87.43348726630211,88.03279909491539 87.43348726630211,88.03279909491539 87.68823274970055,87.77443727850914 87.68823274970055,87.77443727850914 87.68823274970055,87.51608309149742 87.68823274970055,87.51608309149742 87.94297823309898,87.51608309149742 87.94297823309898,87.25772127509117 87.94297823309898,87.25772127509117 87.94297823309898,87.25772127509117 87.94297823309898,86.99935945868492 88.19772371649742,86.7410052716732 88.19772371649742,86.7410052716732 88.45247682929039,86.48264345526695 88.45247682929039,86.48264345526695 88.45247682929039,86.22428926825523 88.45247682929039,86.22428926825523 88.70722231268883,85.96592745184898 88.70722231268883,85.70757326483727 88.70722231268883,85.19084963202477 88.70722231268883,85.19084963202477 88.70722231268883,84.93249544501305 88.96196779608727,84.41578707098961 88.96196779608727,84.41578707098961 88.96196779608727,83.89906343817711 88.96196779608727,83.89906343817711 88.96196779608727,83.64070925116539 88.96196779608727,83.38234743475914 88.96196779608727,83.38234743475914 89.2167132794857,82.86563143134117 89.2167132794857,82.86563143134117 89.2167132794857,82.60727724432945 89.2167132794857,82.09055361151695 89.2167132794857,82.09055361151695 89.2167132794857,81.83219942450523 89.2167132794857,81.83219942450523 89.47145876288414,81.31548342108727 89.47145876288414,81.31548342108727 89.47145876288414,80.79875978827477 89.47145876288414,80.79875978827477 89.47145876288414,80.2820437848568 89.47145876288414,80.2820437848568 89.72620424628258,79.50697359442711 89.72620424628258,79.50697359442711 89.98095735907555,78.73190340399742 89.98095735907555,78.47354158759117 90.23570284247398,77.69846376776695 90.49044832587242,76.92339357733727 90.49044832587242,75.63159975409508 90.49044832587242,75.37323793768883 90.49044832587242,74.85652193427086 90.49044832587242,74.85652193427086 90.49044832587242,74.59816011786461 90.49044832587242,74.59816011786461 90.49044832587242,74.33980593085289 90.49044832587242,74.33980593085289 90.49044832587242,73.82308992743492 90.49044832587242,73.56472811102867 90.49044832587242,73.0480121076107 90.49044832587242,72.53130373358727 90.49044832587242,72.27294191718102 90.49044832587242,72.0145877301693 90.49044832587242,71.4978640973568 90.49044832587242,71.23950991034508 90.49044832587242,70.98114809393883 90.49044832587242,70.72279390692711 90.49044832587242,70.20607790350914 90.49044832587242,69.94771608710289 90.49044832587242,69.68935427069664 90.49044832587242,69.43100008368492 90.49044832587242,68.6559222638607 90.49044832587242,68.6559222638607 90.49044832587242,68.39756044745445 90.49044832587242,68.39756044745445 90.49044832587242,67.88084444403648 90.49044832587242,67.88084444403648 90.49044832587242,67.36412844061852 90.49044832587242,66.84741243720055 90.49044832587242,66.58905825018883 90.49044832587242,66.33070406317711 90.49044832587242,66.07234224677086 90.49044832587242,65.81398805975914 90.49044832587242,65.55562624335289 90.49044832587242,65.55562624335289 90.49044832587242,65.55562624335289 90.49044832587242,65.29726442694664 90.49044832587242,65.03891023993492 90.74519380927086,64.78054842352867 90.74519380927086,64.78054842352867 90.74519380927086,64.78054842352867 90.74519380927086,64.78054842352867 90.74519380927086,64.52219423651695 90.74519380927086,64.52219423651695 90.74519380927086,64.00547060370445 90.74519380927086,64.00547060370445 90.74519380927086,63.747116416692734 90.74519380927086,63.48875841498375 90.74519380927086,63.2303965985775 90.74519380927086,62.972038596868515 90.74519380927086,62.455322593450546 90.74519380927086,62.455322593450546 90.74519380927086,62.19696840643883 90.74519380927086,61.93861040472984 90.74519380927086,61.68024858832359 90.74519380927086,61.42189058661461 90.74519380927086,61.163532584905624 90.99993166327477,60.90517458319664 90.99993166327477,60.646816581487656 90.99993166327477,60.646816581487656 90.99993166327477,60.38845857977867 90.99993166327477,60.13009676337242 90.99993166327477,60.13009676337242 90.99993166327477,59.87173876166344 90.99993166327477,59.87173876166344 90.99993166327477,59.61338075995445 90.99993166327477,59.61338075995445 90.99993166327477,59.09666857123375 90.99993166327477,59.09666857123375 90.99993166327477,59.09666857123375 90.99993166327477,58.838310569524765 90.99993166327477,58.838310569524765 90.99993166327477,58.579948753118515 90.99993166327477,58.32159075140953 90.99993166327477,58.32159075140953 90.99993166327477,58.32159075140953 90.99993166327477,58.063232749700546 90.99993166327477,58.063232749700546 90.99993166327477,58.063232749700546 90.99993166327477,57.80487474799156 90.99993166327477,57.80487474799156 90.99993166327477,57.80487474799156 90.99993166327477,57.80487474799156 90.99993166327477,57.54651674628258 90.99993166327477,57.54651674628258 90.99993166327477,57.54651674628258 90.99993166327477,57.28815874457359 90.99993166327477,57.28815874457359 90.99993166327477,57.28815874457359 90.99993166327477,57.02979692816734 90.99993166327477,57.02979692816734 90.99993166327477,57.02979692816734 90.99993166327477,56.77143892645836 90.74519380927086,56.77143892645836 90.74519380927086,56.77143892645836 90.74519380927086,56.77143892645836 90.74519380927086,56.513080924749374 90.74519380927086,56.513080924749374 90.74519380927086,56.25472292304039 90.74519380927086,56.25472292304039 90.49044832587242,56.25472292304039 90.49044832587242,55.99636873602867 90.49044832587242,55.99636873602867 90.49044832587242,55.99636873602867 90.49044832587242,55.99636873602867 90.49044832587242,55.99636873602867 90.49044832587242,55.73801073431969 90.49044832587242,55.73801073431969 90.23570284247398,55.73801073431969 90.23570284247398,55.73801073431969 90.23570284247398,55.73801073431969 90.23570284247398,55.47964891791344 90.23570284247398,55.47964891791344 90.23570284247398,55.47964891791344 89.98095735907555,55.47964891791344 89.98095735907555,55.22129091620445 89.98095735907555,55.22129091620445 89.98095735907555,55.22129091620445 89.72620424628258,55.22129091620445 89.72620424628258,55.22129091620445 89.72620424628258,54.96293291449547 89.72620424628258,54.96293291449547 89.72620424628258,54.96293291449547 89.72620424628258,54.96293291449547 89.47145876288414,54.96293291449547 89.47145876288414,54.96293291449547 89.47145876288414,54.96293291449547 89.47145876288414,54.704574912786484 89.2167132794857,54.704574912786484 89.2167132794857,54.704574912786484 89.2167132794857,54.704574912786484 88.96196779608727,54.704574912786484 88.96196779608727,54.704574912786484 88.70722231268883,54.704574912786484 88.70722231268883,54.704574912786484 88.70722231268883,54.704574912786484 88.45247682929039,54.704574912786484 88.45247682929039,54.704574912786484 88.45247682929039,54.704574912786484 88.19772371649742,54.704574912786484 88.19772371649742,54.4462169110775 87.94297823309898,54.4462169110775 87.94297823309898,54.4462169110775 87.94297823309898,54.4462169110775 87.68823274970055,54.4462169110775 87.68823274970055,54.4462169110775 87.68823274970055,54.187858909368515 87.43348726630211,54.187858909368515 87.43348726630211,54.187858909368515 87.43348726630211,54.187858909368515 87.17874178290367,54.187858909368515 87.17874178290367,54.187858909368515 86.9239886701107,54.187858909368515 86.9239886701107,53.929497092962265 86.9239886701107,53.929497092962265 86.66924318671227,53.929497092962265 86.66924318671227,53.929497092962265 86.66924318671227,53.929497092962265 86.66924318671227,53.929497092962265 86.41449770331383,53.929497092962265 86.41449770331383,53.929497092962265 86.15975221991539,53.67113909125328 86.15975221991539,53.67113909125328 85.90500673651695,53.67113909125328 85.90500673651695,53.67113909125328 85.90500673651695,53.67113909125328 85.90500673651695,53.67113909125328 85.39550814032555,53.67113909125328 85.14076265692711,53.67113909125328 85.14076265692711,53.67113909125328 84.8860248029232,53.412781089544296 84.8860248029232,53.412781089544296 84.63127931952477,53.412781089544296 84.63127931952477,53.412781089544296 84.63127931952477,53.412781089544296 84.63127931952477,53.412781089544296 84.37653383612633,53.412781089544296 84.37653383612633,53.412781089544296 84.12178835272789,53.412781089544296 84.12178835272789,53.412781089544296 84.12178835272789,53.412781089544296 84.12178835272789,53.15442690253258 83.86703523993492,53.15442690253258 83.86703523993492,53.15442690253258 83.61228975653648,53.15442690253258 83.61228975653648,53.15442690253258 83.61228975653648,53.15442690253258 83.61228975653648,53.15442690253258 83.35754427313805,53.15442690253258 83.35754427313805,53.15442690253258 83.35754427313805,53.15442690253258 83.10279878973961,53.15442690253258 83.10279878973961,53.15442690253258 82.84805330634117,53.15442690253258 82.84805330634117,52.89606890082359 82.84805330634117,52.89606890082359 82.59330782294273,52.89606890082359 82.59330782294273,52.89606890082359 82.59330782294273,52.89606890082359 82.59330782294273,52.89606890082359 82.33855471014977,52.89606890082359 82.33855471014977,52.89606890082359 82.33855471014977,52.63771089911461 82.08380922675133,52.63771089911461 82.08380922675133,52.63771089911461 82.08380922675133,52.37934908270836 82.08380922675133,52.37934908270836 81.82906374335289,52.37934908270836 81.82906374335289,52.120991080999374 81.82906374335289,52.120991080999374 81.82906374335289,51.86263307929039 81.82906374335289,51.86263307929039 81.57431825995445,51.604275077581406 81.31957277655602,51.34591707587242 81.31957277655602,51.34591707587242 81.31957277655602,51.34591707587242 81.31957277655602,51.34591707587242 81.31957277655602,51.08755525946617 81.31957277655602,51.08755525946617 81.06481966376305,51.08755525946617 81.06481966376305,51.08755525946617 81.06481966376305,50.82919725775719 81.06481966376305,50.82919725775719 81.06481966376305,50.82919725775719 81.06481966376305,50.82919725775719 81.06481966376305,50.82919725775719 81.06481966376305,50.5708392560482 81.06481966376305,50.5708392560482 81.06481966376305,50.31248125433922 81.06481966376305,50.0541270673275 81.06481966376305,49.795769065618515 81.06481966376305,49.27904924750328 81.06481966376305,48.76233324408531 81.06481966376305,48.76233324408531 81.06481966376305,48.50397524237633 81.31957277655602,48.50397524237633 81.31957277655602,47.98725542426109 81.31957277655602,47.72889742255211 81.31957277655602,47.470539420843124 81.31957277655602,47.21218141913414 81.31957277655602,46.95382723212242 81.31957277655602,46.95382723212242 81.31957277655602,46.69546923041344 81.31957277655602,46.43710741400719 81.31957277655602,46.43710741400719 81.31957277655602,46.1787494122982 81.31957277655602,46.1787494122982 81.31957277655602,45.92039141058922 81.31957277655602,45.92039141058922 81.31957277655602,45.662033408880234 81.31957277655602,45.662033408880234 81.31957277655602,45.40367540717125 81.31957277655602,45.40367540717125 81.31957277655602,45.145317405462265 81.57431825995445,44.886955589056015 81.57431825995445,44.886955589056015 81.57431825995445,44.62859758734703 81.57431825995445,44.62859758734703 81.57431825995445,44.370239585638046 81.57431825995445,44.11188158392906 81.57431825995445,43.85352739691734 81.57431825995445,43.59516939520836 81.57431825995445,43.33680757880211 81.57431825995445,43.078449577093124 81.57431825995445,42.561733573675156 81.57431825995445,42.30337557196617 81.57431825995445,42.04501757025719 81.82906374335289,42.04501757025719 81.82906374335289,41.52829775214195 81.82906374335289,41.26993975043297 81.82906374335289,41.01158556342125 81.82906374335289,40.753227561712265 81.82906374335289,40.23650774359703 81.82906374335289,39.978149741888046 81.82906374335289,39.71979174017906 82.08380922675133,39.46143373847008 82.08380922675133,39.20307573676109 82.08380922675133,39.20307573676109 82.08380922675133,38.427997916936874 82.08380922675133,38.427997916936874 82.08380922675133,37.91128572821617 82.08380922675133,37.91128572821617 82.08380922675133,37.3945697247982 82.08380922675133,37.13620790839195 82.08380922675133,36.619491904973984 82.08380922675133,36.102775901556015 82.33855471014977,35.58605608344078 82.33855471014977,35.327698081731796 82.33855471014977,34.81098589301109 82.33855471014977,34.035908073186874 82.33855471014977,33.77755007147789 82.33855471014977,33.519192069768906 82.33855471014977,33.519192069768906 82.33855471014977,33.26083406805992 82.33855471014977,33.26083406805992 82.33855471014977,33.00247606635094 82.33855471014977,32.74411806464195 82.59330782294273,32.22739824652672 82.59330782294273,32.22739824652672 82.59330782294273,31.710686057806015 82.59330782294273,31.193968147039413 82.59330782294273,30.93561014533043 82.84805330634117,30.418892234563828 82.84805330634117,30.160534232854843 82.84805330634117,29.643818229436874 82.84805330634117,29.127100318670273 82.84805330634117,28.86874231696129 83.10279878973961,28.35202631354332 83.10279878973961,28.35202631354332 83.10279878973961,27.83531031012535 83.10279878973961,27.576950401067734 83.10279878973961,27.060234397649765 83.10279878973961,26.80187639594078 83.10279878973961,26.80187639594078 83.10279878973961,26.543518394231796 83.10279878973961,26.285160392522812 83.10279878973961,26.026800483465195 83.10279878973961,25.76844248175621 83.10279878973961,25.510082572698593 83.10279878973961,24.993368476629257 83.10279878973961,24.993368476629257 83.35754427313805,24.476650565862656 83.35754427313805,24.476650565862656 83.35754427313805,24.21829256415367 83.35754427313805,23.701576560735703 83.35754427313805,23.701576560735703 83.35754427313805,23.184860557317734 83.35754427313805,23.184860557317734 83.61228975653648,22.668142646551132 83.61228975653648,21.89306864142418 83.61228975653648,21.376350730657578 83.61228975653648,20.85963472723961 83.61228975653648,20.34291872382164 83.61228975653648,20.084558814764023 83.86703523993492,19.30948480963707 83.86703523993492,19.051126807928085 83.86703523993492,18.2760508954525 83.86703523993492,18.017692893743515 84.12178835272789,17.500976890325546 84.12178835272789,17.242618888616562 84.37653383612633,16.72590097784996 84.37653383612633,15.950826972723007 84.37653383612633,15.692468017339706 84.37653383612633,15.175751060247421 84.37653383612633,14.659036010503769 84.37653383612633,14.659036010503769 84.37653383612633,14.400677055120468 84.37653383612633,14.142318099737167 84.37653383612633,13.883960098028183 84.12178835272789,13.367244094610214 84.12178835272789,13.367244094610214 84.12178835272789,13.108885139226913 84.12178835272789,12.850527137517929 84.12178835272789,12.592168182134628 84.12178835272789,12.592168182134628 84.12178835272789,12.592168182134628 84.12178835272789,12.592168182134628 83.86703523993492,12.333810180425644 83.86703523993492,12.333810180425644 83.86703523993492,12.07545217871666 83.61228975653648,12.07545217871666 83.35754427313805,11.817093223333359 83.10279878973961,11.558735221624374 83.10279878973961,11.558735221624374 82.84805330634117,11.30037721991539 82.84805330634117,11.30037721991539 82.59330782294273,11.30037721991539 82.59330782294273,11.04201826453209 82.33855471014977,11.04201826453209 82.08380922675133,10.783659309148788 81.82906374335289,10.783659309148788 81.57431825995445,10.783659309148788 81.57431825995445,10.783659309148788 81.31957277655602,10.52530226111412 81.31957277655602,10.52530226111412 81.06481966376305,10.26694330573082 81.06481966376305,10.26694330573082 80.81007418036461,10.26694330573082 80.55532869696617,10.26694330573082 80.30058321356773,9.750227302312851 80.0458377301693,9.750227302312851 80.0458377301693,9.750227302312851 79.79109224677086,9.49186834692955 79.79109224677086,9.49186834692955 79.28159365057945,9.23350939154625 79.28159365057945,9.23350939154625 78.77211031317711,8.975152343511581 78.00786623358727,8.975152343511581 77.24362978339195,8.975152343511581 76.47938570380211,8.975152343511581 75.96989473700523,8.71679338812828 75.46040377020836,8.71679338812828 74.18666872382164,8.71679338812828 73.9319232404232,8.458435386419296 72.14869722723961,8.458435386419296 72.14869722723961,8.458435386419296 70.62021669745445,8.458435386419296 69.34648165106773,8.458435386419296 68.83699068427086,8.458435386419296 68.07275423407555,8.458435386419296 67.3085101544857,8.458435386419296 67.0537723004818,8.458435386419296 66.79902681708336,8.458435386419296 66.54427370429039,8.458435386419296 66.28952822089195,8.458435386419296 66.28952822089195,8.458435386419296 66.03478273749352,8.458435386419296 65.01579317450523,7.941718429327011 64.25155672430992,7.941718429327011 62.9778216779232,7.941718429327011 62.9778216779232,7.683360904455185 62.46833071112633,7.683360904455185 62.21358522772789,7.683360904455185 61.44934496283531,7.425002425909042 61.44934496283531,7.425002425909042 60.93985018134117,7.425002425909042 60.685104697942734,7.166643470525742 60.430359214544296,7.166643470525742 59.920864433050156,7.166643470525742 59.15662798285484,7.166643470525742 59.15662798285484,7.166643470525742 58.6471332013607,6.908285945653915 58.6471332013607,6.908285945653915 58.13763841986656,6.908285945653915 57.882892936468124,6.649926990270615 57.118652671575546,6.649926990270615 56.86390718817711,6.649926990270615 56.099670737981796,6.649926990270615 55.84492143988609,6.649926990270615 55.33543047308922,6.649926990270615 54.31644091010094,6.649926990270615 54.0616954267025,6.649926990270615 53.042709678411484,6.649926990270615 52.787964195013046,6.649926990270615 52.278469413518906,6.649926990270615 51.51422914862633,6.649926990270615 50.749992698431015,6.649926990270615 49.73100695014,6.649926990270615 48.20252642035484,6.649926990270615 48.20252642035484,6.649926990270615 46.67404970526695,6.649926990270615 46.16455492377281,6.649926990270615 44.89082369208336,6.908285945653915 44.12658342719078,6.908285945653915 42.598102897405624,6.908285945653915 40.56013140082359,6.908285945653915 39.03165087103844,7.166643470525742 35.71995195746422,7.425002425909042 33.17248186469078,7.941718429327011 32.662990897893906,7.941718429327011 30.625019401311874,8.200077384710312 30.115526527166367,8.458435386419296 28.587047904729843,8.71679338812828 28.332300513982773,8.71679338812828 27.822809547185898,8.975152343511581 27.568062156438828,8.975152343511581 27.568062156438828,8.975152343511581 27.313314765691757,8.975152343511581 27.058567374944687,9.23350939154625 27.058567374944687,9.23350939154625 26.80382189154625,9.23350939154625 26.80382189154625,9.23350939154625 26.80382189154625,9.49186834692955 26.80382189154625,9.49186834692955 26.54907450079918,9.750227302312851 26.54907450079918,10.008584350347519 26.29432901740074,10.008584350347519 26.29432901740074,10.008584350347519 26.29432901740074,10.26694330573082 26.29432901740074,10.26694330573082 26.29432901740074,10.783659309148788 26.29432901740074,11.04201826453209 26.039583534002304,11.30037721991539 26.039583534002304,11.30037721991539 26.039583534002304,12.07545217871666 26.039583534002304,12.333810180425644 26.039583534002304,13.108885139226913 26.039583534002304,13.625601142644882 26.039583534002304,13.883960098028183 26.039583534002304,14.400677055120468 26.039583534002304,14.91739210486412 26.039583534002304,15.175751060247421 26.039583534002304,15.692468017339706 26.039583534002304,15.950826972723007 26.039583534002304,16.20918497443199 26.039583534002304,16.72590097784996 26.039583534002304,17.242618888616562 26.039583534002304,17.75933489203453 26.039583534002304,17.75933489203453 26.039583534002304,18.2760508954525 26.039583534002304,18.534408897161484 26.039583534002304,18.7927688062191 26.039583534002304,19.051126807928085 26.039583534002304,19.30948480963707 26.039583534002304,19.567842811346054 26.039583534002304,19.82620081305504 26.039583534002304,20.084558814764023 26.039583534002304,20.34291872382164 26.039583534002304,20.601276725530624 26.039583534002304,20.85963472723961 26.039583534002304,20.85963472723961 26.039583534002304,21.376350730657578 26.039583534002304,21.376350730657578 26.039583534002304,21.89306864142418 26.039583534002304,22.151426643133163 26.039583534002304,22.668142646551132 26.039583534002304,22.926500648260117 26.039583534002304,23.184860557317734 26.039583534002304,23.959932655096054 26.039583534002304,24.476650565862656 26.039583534002304,24.73500856757164 26.039583534002304,24.73500856757164 26.039583534002304,25.25172647833824 26.039583534002304,25.76844248175621 26.039583534002304,26.285160392522812 26.039583534002304,27.060234397649765 26.039583534002304,27.576950401067734 26.039583534002304,27.576950401067734 26.039583534002304,28.35202631354332 26.039583534002304,28.610384315252304 26.039583534002304,29.127100318670273 26.039583534002304,29.127100318670273 26.039583534002304,29.643818229436874 26.039583534002304,29.902174323797226 26.039583534002304,30.160534232854843 26.039583534002304,30.677250236272812 26.039583534002304,31.193968147039413 26.039583534002304,31.452326148748398 26.039583534002304,32.74411806464195 26.039583534002304,33.26083406805992 26.039583534002304,35.06934389472008 26.039583534002304,35.327698081731796 26.039583534002304,37.13620790839195 26.039583534002304,37.91128572821617 26.039583534002304,38.16963991522789 26.039583534002304,38.427997916936874 26.039583534002304,38.68635591864586 26.039583534002304,38.94471773505211 26.039583534002304,39.20307573676109 26.039583534002304,39.978149741888046 26.039583534002304,40.23650774359703 25.784836143255234,41.26993975043297 25.784836143255234,41.52829775214195 25.784836143255234,42.561733573675156 25.784836143255234,43.078449577093124 25.784836143255234,43.59516939520836 25.784836143255234,44.11188158392906 25.784836143255234,44.886955589056015 25.784836143255234,44.886955589056015 25.784836143255234,45.145317405462265 25.530088752508163,45.40367540717125 25.530088752508163,45.92039141058922 25.530088752508163,46.1787494122982 25.530088752508163,46.43710741400719 25.530088752508163,46.95382723212242 25.530088752508163,46.95382723212242 25.275343269109726,47.470539420843124 25.275343269109726,47.470539420843124 25.275343269109726,47.72889742255211 25.275343269109726,47.72889742255211 25.020595878362656,48.24561724066734 25.020595878362656,48.24561724066734 25.020595878362656,48.50397524237633 25.020595878362656,48.50397524237633 25.020595878362656,48.76233324408531 24.765850394964218,48.76233324408531 24.511103004217148,49.020691245794296 24.511103004217148,49.27904924750328 24.511103004217148,49.537407249212265 24.511103004217148,49.537407249212265 24.25635752081871,49.795769065618515 24.25635752081871,50.0541270673275 24.25635752081871,50.0541270673275 24.00161013007164,50.31248125433922 24.00161013007164,50.31248125433922 24.00161013007164,50.5708392560482 23.74686273932457,50.82919725775719 23.74686273932457,50.82919725775719 23.492119163274765,51.08755525946617 23.237371772527695,51.34591707587242 23.237371772527695,51.604275077581406 22.982624381780624,51.604275077581406 22.982624381780624,51.86263307929039 22.982624381780624,51.86263307929039 22.727878898382187,52.120991080999374 22.473131507635117,52.37934908270836 22.218384116888046,52.63771089911461 22.218384116888046,52.63771089911461 21.96363863348961,52.63771089911461 21.96363863348961,52.89606890082359 21.70889315009117,52.89606890082359 21.70889315009117,52.89606890082359 21.19939836859703,53.15442690253258 20.944652885198593,53.15442690253258 20.689905494451523,53.15442690253258 20.689905494451523,53.15442690253258 20.435160011053085,53.15442690253258 20.435160011053085,53.15442690253258 19.925667136907578,53.15442690253258 19.925667136907578,53.15442690253258 19.925667136907578,53.15442690253258 19.670919746160507,53.15442690253258 19.416172355413437,53.412781089544296 19.161426872015,53.412781089544296 18.906681388616562,53.412781089544296 18.906681388616562,53.412781089544296 18.65193399786949,53.412781089544296 18.397188514471054,53.412781089544296 18.397188514471054,53.412781089544296 18.142441123723984,53.412781089544296 18.142441123723984,53.412781089544296 18.142441123723984,53.412781089544296 17.887693732976913,53.412781089544296 17.632948249578476,53.412781089544296 17.632948249578476,53.412781089544296 17.37820276618004,53.412781089544296 17.37820276618004,53.412781089544296 17.123455375432968,53.412781089544296 17.123455375432968,53.412781089544296 16.86870989203453,53.412781089544296 16.86870989203453,53.412781089544296 16.61396250128746,53.412781089544296 16.61396250128746,53.412781089544296 16.61396250128746,53.412781089544296 16.35921511054039,53.412781089544296 16.35921511054039,53.15442690253258 16.35921511054039,53.15442690253258 " opacity="NaN" fill="none"/>
  <path d="m10.25005,54.89986c0,-0.25 0,-0.25 0,-0.25c0.25,0 0.25,-0.25 0.25,-0.25c0,0 0.25,0 0.25,0c0.25,-0.25 0.5,-0.25 0.75,-0.25c0.25,0 0.25,0 0.5,0c0,0 0,-0.25 0.25,-0.25c0,0 0.25,0 0.25,0c0.25,0 0.25,0 0.25,0c0,0 0.25,0 0.25,0c0,0 0,0 0.25,0c0,0 0,0 0.25,0c0,0 0,0 0.25,0c0,0 0,0 0,0c0.25,0 0.25,0 0.25,0c0.25,0 0.25,0 0.25,0c0.25,0 0.25,0 0.25,0.25c0,0 0.25,0 0.25,0c0,0 0.25,0 0.25,0c0.25,0 0.25,0 0.25,0c0,0 0.25,0 0.25,0c0,0 0.25,0 0.25,0.25c0,0 0.25,0 0.25,0l0,0l0.25,0" id="svg_10" stroke="#bf0000" fill="none"/>
  <line stroke="#bf0000" stroke-width="3" id="svg_16" y2="53.59987" x2="29.75002" y1="53.59987" x1="10.00005" fill="none"/>
  <line stroke="#bf0000" stroke-width="3" id="svg_17" y2="55.09986" x2="29.00002" y1="18.09991" x1="42.25" fill="none"/>
  <line stroke="#bf0000" stroke-width="3" id="svg_18" y2="17.34991" x2="41.50001" y1="86.59982" x1="59.49998" fill="none"/>
  <line stroke="#bf0000" stroke-width="3" id="svg_19" y2="86.59982" x2="59.49998" y1="51.59987" x1="67.49997" fill="none"/>
  <line stroke="#bf0000" stroke-width="3" id="svg_20" y2="52.59987" x2="66.74997" y1="52.34987" x1="81.49995" fill="none"/>
 </g>
</svg>
